# AST/ASF file generated using VICON BodyLanguage
# -----------------------------------------------
:version 1.10
:name VICON
:units
  mass 1.0
  length 0.45
  angle deg
:documentation
   .ast/.asf automatically generated from VICON data using
   VICON BodyBuilder and BodyLanguage model FoxedUp or BRILLIANT.MOD
:root
   order TX TY TZ RX RY RZ
   axis XYZ
   position 0 0 0  
   orientation 0 0 0 
:bonedata
  begin
     id 1 
     name lhipjoint
     direction 0.612567 -0.751349 0.245431 
     length 2.42285 
     axis 0 0 0  XYZ
  end
  begin
     id 2 
     name lfemur
     direction 0.34202 -0.939693 0  
     length 7.11304  
     axis 0 0 20  XYZ
    dof rx ry rz
    limits (-160.0 20.0)
           (-70.0 70.0)
           (-60.0 70.0)
  end
  begin
     id 3 
     name ltibia
     direction 0.34202 -0.939693 0   
     length 7.84529   
     axis 0 0 20   XYZ
    dof rx
    limits (-10.0 170.0)
  end
  begin
     id 4 
     name lfoot
     direction 0.0779239 -0.214094 0.9737   
     length 1.97176   
     axis -90 7.62852e-016 20   XYZ
    dof rx rz
    limits (-45.0 90.0)
           (-70.0 20.0)
  end
  begin
     id 5 
     name ltoes
     direction 1.53565e-011 -4.21709e-011 1   
     length 0.993197   
     axis -90 7.62852e-016 20   XYZ
    dof rx
    limits (-90.0 20.0)
  end
  begin
     id 6 
     name rhipjoint
     direction -0.665722 -0.709315 0.231701   
     length 2.56642  
     axis 0 0 0  XYZ 
  end
  begin
     id 7 
     name rfemur
     direction -0.34202 -0.939693 0   
     length 7.32108   
     axis 0 0 -20   XYZ
    dof rx ry rz
    limits (-160.0 20.0)
           (-70.0 70.0)
           (-70.0 60.0)
  end
  begin
     id 8 
     name rtibia
     direction -0.34202 -0.939693 0   
     length 7.81254   
     axis 0 0 -20   XYZ
    dof rx
    limits (-10.0 170.0)
 end
 begin
     id 9 
     name rfoot
     direction -0.0832806 -0.228812 0.969902   
     length 2.08278  
     axis -90 -7.62852e-016 -20   XYZ
    dof rx rz
    limits (-45.0 90.0)
           (-20.0 70.0)
  end
  begin
     id 10 
     name rtoes
     direction -1.53589e-011 -4.22086e-011 1   
     length 1.04609   
     axis -90 -7.62852e-016 -20   XYZ
    dof rx
    limits (-90.0 20.0)
  end
  begin
     id 11 
     name lowerback
     direction -0.00506013 0.988403 -0.151766   
     length 2.01978   
     axis 0 0 0   XYZ
    dof rx ry rz
    limits (-20.0 45.0)
           (-30.0 30.0)
           (-30.0 30.0)
  end
  begin
     id 12 
     name upperback
     direction -0.00836389 0.99968 0.0238859   
     length 2.01276   
     axis 0 0 0   XYZ
    dof rx ry rz
    limits (-20.0 45.0)
           (-30.0 30.0)
           (-30.0 30.0)
  end
  begin
     id 13 
     name thorax
     direction -0.00684136 0.995386 0.0957043   
     length 2.07303   
     axis 0 0 0   XYZ
    dof rx ry rz
    limits (-20.0 45.0)
           (-30.0 30.0)
           (-30.0 30.0)
  end
  begin
     id 14 
     name lowerneck
     direction -0.0161045 0.999661 0.0204485   
     length 1.91243   
     axis 0 0 0   XYZ
    dof rx ry rz
    limits (-20.0 45.0)
           (-30.0 30.0)
           (-30.0 30.0)
  end
  begin
     id 15 
     name upperneck
     direction 0.0553583 0.990946 -0.122319   
     length 1.91574   
     axis 0 0 0   XYZ
    dof rx ry rz
    limits (-20.0 45.0)
           (-30.0 30.0)
           (-30.0 30.0)
  end
  begin
     id 16
     name head
     direction 0.0180273 0.998839 -0.0446756  
     length 1.92693  
     axis 0 0 0   XYZ
    dof rx ry rz
    limits (-20.0 45.0)
           (-30.0 30.0)
           (-30.0 30.0)
  end
  begin
     id 17 
     name lclavicle
     direction 0.945646 0.319323 -0.0615358  
     length 4.0076  
     axis 0 0 0   XYZ
    dof ry rz
    limits (-20.0 10.0)
           (0.0 20.0)
  end
  begin
     id 18 
     name lhumerus
     direction 1 -4.48967e-011 -2.79996e-027   
     length 5.64147   
     axis 180 -30 -90   XYZ
    dof rx ry rz
    limits (-60.0 90.0)
           (-90.0 90.0)
           (-90.0 90.0)
  end
  begin
     id 19
     name lradius
     direction 1 -4.48976e-011 -9.5122e-027   
     length 2.86444   
     axis 180 -30 -90   XYZ
    dof rx
    limits (-10.0 170.0)
  end
  begin
     id 20
     name lwrist
     direction 1 -4.48983e-011 -1.24047e-026   
     length 1.43222   
     axis 9.05591e-015 90 90   XYZ
    dof ry
    limits (-180.0 0.0)
 end
  begin
     id 21 
     name lhand
     direction 1 -4.4892e-011 -2.48094e-026   
     length 0.722123   
     axis 1.58305e-014 90 90   XYZ
    dof rx rz
    limits (-90.0 90.0)
           (-45.0 45.0)
  end
  begin
     id 22 
     name lfingers
     direction 1 -4.48895e-011 -4.96187e-026   
     length 0.582194   
     axis 3.1661e-014 90 90   XYZ
    dof rx
    limits (0.0 90.0)
  end
  begin
     id 23
     name lthumb
     direction 0.707107 -6.34961e-011 0.707107   
     length 0.835918   
     axis -90 45 2.85299e-015   XYZ
    dof rx rz
    limits (-45.0 45.0)
           (-45.0 45.0)
  end
  begin
     id 24 
     name rclavicle
     direction -0.932635 0.324218 -0.15835   
     length 3.65819  
     axis 0 0 0   XYZ 
    dof ry rz
    limits (-10.0 20.0)
           (-20.0 0.0)
  end
  begin
     id 25 
     name rhumerus
     direction -1 -4.48965e-011 -4.02296e-027  
     length 5.44729   
     axis 180 30 90   XYZ
    dof rx ry rz
    limits (-90.0 60.0)
           (-90.0 90.0)
           (-90.0 90.0)
  end
  begin
     id 26 
     name rradius
     direction -1 -4.48957e-011 -8.81087e-027   
     length 3.08821   
     axis 180 30 90   XYZ
    dof rx
    limits (-10.0 170.0)
  end
  begin
     id 27 
     name rwrist
     direction -1 -4.49015e-011 -1.24047e-026   
     length 1.5441   
     axis 9.05591e-015 -90 -90   XYZ
    dof ry
    limits (-180.0 0.0)
  end
  begin
     id 28
     name rhand
     direction -1 -4.4891e-011 -2.48094e-026   
     length 0.821049   
     axis 1.58305e-014 -90 -90   XYZ
    dof rx rz
    limits (-90.0 90.0)
           (-45.0 45.0)
  end
  begin
     id 29
     name rfingers
     direction -1 -4.48985e-011 -4.96187e-026   
     length 0.661951   
     axis 3.1661e-014 -90 -90   XYZ
    dof rx
    limits (0.0 90.0)
  end
  begin
     id 30
     name rthumb
     direction -0.707107 -6.34906e-011 0.707107   
     length 0.950433   
     axis -90 -45 -2.85299e-015   XYZ
    dof rx rz
    limits (-45.0 45.0)
           (-45.0 45.0)
  end
:hierarchy
  begin
    root lhipjoint rhipjoint lowerback
    lhipjoint lfemur
    lfemur ltibia
    ltibia lfoot
    lfoot ltoes
    rhipjoint rfemur
    rfemur rtibia
    rtibia rfoot
    rfoot rtoes
    lowerback upperback
    upperback thorax
    thorax lowerneck lclavicle rclavicle
    lowerneck upperneck
    upperneck head
    lclavicle lhumerus
    lhumerus lradius
    lradius lwrist
    lwrist lhand lthumb
    lhand lfingers
    rclavicle rhumerus
    rhumerus rradius
    rradius rwrist
    rwrist rhand rthumb
    rhand rfingers
  end

#!OML:ASF F:\VICON\USERDATA\INSTALL\rory3\rory3.ASF
:FULLY-SPECIFIED
:DEGREES
1062
root 3.85755 17.4922 0.372513 206.998 87.2323 210.571
lowerback -0.451376 0.398729 2.47123
upperback -1.40159 0.536657 -1.28354
thorax -1.14932 0.238216 -2.70593
lowerneck 0.544485 -5.23933 -4.14751
upperneck -3.00631 -6.78689 8.83271
head -0.566456 -3.41476 3.59561
rclavicle -1.78906e-015 1.86858e-014
rhumerus -36.8975 1.30864 -89.981
rradius 62.5266
rwrist -18.0572
rhand 6.79501 14.4678
rfingers 7.12502
rthumb 32.0805 -12.7219
lclavicle -1.78906e-015 1.86858e-014
lhumerus -40.3858 -10.3663 88.5052
lradius 38.3421
lwrist 66.8284
lhand -14.5592 8.34711
lfingers 7.12502
lthumb 11.5899 38.0066
rfemur 4.65757 -2.05221 21.209
rtibia 18.0195
rfoot -23.1446 -6.94981
rtoes -4.51304
lfemur 0.82472 -0.871013 -13.597
ltibia 18.7512
lfoot -15.4981 -5.10754
ltoes -7.37999
1063
root 3.84972 17.4922 0.378781 205.989 87.0605 209.613
lowerback -0.395129 0.347331 2.47478
upperback -1.40724 0.469278 -1.28555
thorax -1.19104 0.203735 -2.71015
lowerneck 0.809001 -5.22159 -4.18791
upperneck -3.47194 -6.72758 9.11516
head -0.755158 -3.39724 3.72259
rclavicle -1.73937e-015 -7.55382e-015
rhumerus -37.1438 1.41415 -89.8295
rradius 64.3125
rwrist -19.2939
rhand 6.81815 14.4921
rfingers 7.12502
rthumb 32.1026 -12.6932
lclavicle -1.73937e-015 -7.55382e-015
lhumerus -39.7982 -10.7207 88.7737
lradius 41.3943
lwrist 68.4606
lhand -14.4285 9.3515
lfingers 7.12502
lthumb 11.716 39.0039
rfemur 4.65321 -2.01704 21.3153
rtibia 18.1194
rfoot -23.3104 -7.08804
rtoes -4.01416
lfemur 0.836488 -0.995347 -13.5273
ltibia 18.6772
lfoot -15.3492 -5.18973
ltoes -7.12857
1064
root 3.84576 17.4932 0.384417 201.458 86.9498 205.129
lowerback -0.404169 0.28453 2.26432
upperback -1.40432 0.384633 -1.35073
thorax -1.18916 0.163676 -2.65825
lowerneck 0.998046 -5.21272 -4.21493
upperneck -3.85778 -6.68238 9.36892
head -0.906409 -3.38459 3.83343
rclavicle -2.48481e-015 3.02153e-014
rhumerus -37.3376 1.54619 -89.6435
rradius 66.0434
rwrist -20.3683
rhand 6.63195 14.6014
rfingers 7.12502
rthumb 31.9253 -12.6195
lclavicle -2.48481e-015 3.02153e-014
lhumerus -39.1652 -10.8989 88.9089
lradius 44.329
lwrist 69.641
lhand -13.8892 9.97308
lfingers 7.12502
lthumb 12.2359 39.5951
rfemur 4.64926 -2.05176 21.1767
rtibia 18.2482
rfoot -23.4405 -7.24503
rtoes -3.93912
lfemur 0.872587 -1.15886 -13.696
ltibia 18.5967
lfoot -15.2449 -5.24691
ltoes -7.17528
1065
root 3.84104 17.4933 0.389371 196.785 86.9025 200.508
lowerback -0.40321 0.248751 1.98845
upperback -1.4023 0.336196 -1.41619
thorax -1.19152 0.142448 -2.57007
lowerneck 1.1918 -5.22693 -4.25606
upperneck -4.27523 -6.66731 9.56798
head -1.06873 -3.38738 3.92984
rclavicle -4.47266e-016 4.77083e-015
rhumerus -37.4283 1.59117 -89.3581
rradius 67.7566
rwrist -21.4812
rhand 6.58372 14.5058
rfingers 7.12502
rthumb 31.8794 -12.7242
lclavicle -4.47266e-016 4.77083e-015
lhumerus -38.523 -10.9879 88.9772
lradius 47.3371
lwrist 70.9011
lhand -12.6256 10.3175
lfingers 7.12502
lthumb 13.454 39.863
rfemur 4.67478 -2.13367 20.9482
rtibia 18.3337
rfoot -23.4678 -7.28104
rtoes -4.10271
lfemur 0.91482 -1.28895 -13.9369
ltibia 18.5654
lfoot -15.2092 -5.2424
ltoes -7.2202
1066
root 3.83355 17.4917 0.39482 195.929 86.9199 199.687
lowerback -0.37932 0.265208 1.88463
upperback -1.42662 0.35842 -1.43477
thorax -1.22894 0.154089 -2.53114
lowerneck 1.40064 -5.25792 -4.28487
upperneck -4.72358 -6.67417 9.705
head -1.24546 -3.40168 4.00477
rclavicle -2.03754e-015 2.38542e-015
rhumerus -37.5585 1.46289 -88.9901
rradius 69.5954
rwrist -22.6424
rhand 6.54104 14.3159
rfingers 7.12502
rthumb 31.8387 -12.9222
lclavicle -2.03754e-015 2.38542e-015
lhumerus -37.8692 -11.1094 89.0283
lradius 50.2595
lwrist 72.0964
lhand -10.9324 10.4217
lfingers 7.12502
lthumb 15.0856 39.852
rfemur 4.658 -2.09059 20.916
rtibia 18.3907
rfoot -23.5074 -7.25071
rtoes -3.86309
lfemur 0.931383 -1.32625 -13.9865
ltibia 18.5563
lfoot -15.1894 -5.20156
ltoes -7.11751
1067
root 3.83062 17.4885 0.397278 199.157 86.8315 203.032
lowerback -0.335959 0.262448 2.0655
upperback -1.43961 0.356058 -1.37598
thorax -1.26622 0.150296 -2.57273
lowerneck 1.63648 -5.28049 -4.32603
upperneck -5.14952 -6.67484 9.78956
head -1.42252 -3.4127 4.06527
rclavicle 1.2424e-015 7.15625e-015
rhumerus -37.7303 1.41583 -88.5976
rradius 71.4305
rwrist -23.7722
rhand 6.13892 14.4243
rfingers 7.12502
rthumb 31.4557 -12.8893
lclavicle 1.2424e-015 7.15625e-015
lhumerus -37.3217 -11.3172 89.1528
lradius 53.215
lwrist 73.3698
lhand -9.8151 10.5667
lfingers 7.12502
lthumb 16.1617 39.9129
rfemur 4.74057 -2.01361 21.164
rtibia 18.43
rfoot -23.6288 -7.25148
rtoes -3.30633
lfemur 1.03281 -1.43066 -13.7691
ltibia 18.5519
lfoot -15.1887 -5.16447
ltoes -6.99849
1068
root 3.83016 17.4865 0.40313 201.047 86.7739 205.019
lowerback -0.346883 0.247684 2.10492
upperback -1.44588 0.336577 -1.32714
thorax -1.26777 0.140194 -2.54449
lowerneck 1.85235 -5.28175 -4.40959
upperneck -5.53315 -6.64908 9.9116
head -1.58258 -3.40934 4.14587
rclavicle -4.32357e-015 1.82882e-014
rhumerus -37.7904 1.47197 -88.2071
rradius 73.1932
rwrist -25.0083
rhand 5.70416 14.5724
rfingers 7.12502
rthumb 31.0414 -12.8212
lclavicle -4.32357e-015 1.82882e-014
lhumerus -36.7149 -11.5321 89.2472
lradius 56.1029
lwrist 74.749
lhand -9.40672 10.5201
lfingers 7.12502
lthumb 16.5549 39.8339
rfemur 4.86028 -1.93399 21.353
rtibia 18.3832
rfoot -23.6712 -7.33965
rtoes -3.24485
lfemur 1.11137 -1.44143 -13.6035
ltibia 18.5784
lfoot -15.1819 -5.20609
ltoes -7.14008
1069
root 3.83095 17.4876 0.411275 197.283 86.6346 201.248
lowerback -0.449727 0.14092 1.8309
upperback -1.47961 0.192455 -1.37277
thorax -1.25367 0.0714134 -2.43597
lowerneck 2.12209 -5.24519 -4.44412
upperneck -5.98872 -6.5659 10.0212
head -1.78388 -3.37998 4.21845
rclavicle -8.44835e-016 3.57812e-015
rhumerus -37.7127 1.50184 -87.8399
rradius 74.9131
rwrist -26.3192
rhand 5.38847 14.6193
rfingers 7.12502
rthumb 30.7404 -12.8314
lclavicle -8.44835e-016 3.57812e-015
lhumerus -36.0403 -11.5871 89.108
lradius 58.9576
lwrist 75.6927
lhand -8.75451 10.6082
lfingers 7.12502
lthumb 17.1827 39.8685
rfemur 4.91416 -2.00166 21.2445
rtibia 18.3474
rfoot -23.79 -7.41609
rtoes -3.11072
lfemur 1.07696 -1.61229 -13.7375
ltibia 18.561
lfoot -15.1463 -5.28183
ltoes -6.72054
1070
root 3.83844 17.4905 0.41547 193.191 85.9993 197.071
lowerback -0.724165 -0.123445 1.67532
upperback -1.51761 -0.162481 -1.41813
thorax -1.15811 -0.103073 -2.39327
lowerneck 2.28966 -5.19534 -4.48294
upperneck -6.36222 -6.46763 10.1327
head -1.94169 -3.33953 4.28591
rclavicle -5.46658e-016 5.56597e-015
rhumerus -37.5388 1.4302 -87.3805
rradius 76.5318
rwrist -27.5219
rhand 5.0684 14.7441
rfingers 7.12502
rthumb 30.4352 -12.7635
lclavicle -5.46658e-016 5.56597e-015
lhumerus -35.3259 -11.5912 88.9356
lradius 61.724
lwrist 76.4024
lhand -8.43752 10.561
lfingers 7.12502
lthumb 17.4878 39.7944
rfemur 4.95438 -2.35957 21.2474
rtibia 18.3312
rfoot -24.0561 -7.62875
rtoes -2.90801
lfemur 0.886346 -2.09457 -13.7769
ltibia 18.5198
lfoot -14.9894 -5.49398
ltoes -6.33711
